<svg id="Layer_1" data-name="Layer 1" xmlns="http://www.w3.org/2000/svg" viewBox="0 0 275.86 275.88"><defs><style>.cls-1{fill:none;}.cls-2{fill:#6f6f6f;}</style></defs><title>icon-github</title><path class="cls-1" d="M208.13,96c3-16.7-.49-24.29-2.11-26.9C200,67,185.19,74.62,177.08,80c-13.21-3.86-41.15-3.5-51.62,1C106.13,67.12,95.89,69.25,95.89,69.25S89.28,81.08,94.15,98.4c-6.36,8.11-11.1,13.84-11.1,29a71.48,71.48,0,0,0,3.28,22.92c-0.27,0,3.06,7.15,3.15,7.15,7.26,13.19,21.28,21.39,44.9,23.66-3.37,2.56-7.42,7.41-8,13-4.23,2.74-12.78,3.64-19.41,1.55-9.28-2.94-12.85-21.32-26.76-18.69-3,.56-2.4,2.54.2,4.23a27.23,27.23,0,0,1,11.3,13.48c2.38,5.6,7.35,15.62,23.06,15.62a68.47,68.47,0,0,0,10.59-.76s0.13,14.31.13,19.87c0,6.43-8.67,8.23-8.67,11.32,0,1.23,2.87,1.35,5.17,1.35,4.56,0,14-3.82,14-10.49,0-5.3.09-23.12,0.09-26.23,0-6.81,3.64-9,3.64-9s0.47,36.38-.86,41.26c-1.55,5.73-4.36,4.92-4.36,7.48,0,3.8,11.41.92,15.19-7.42,2.92-6.5,1.64-42.18,1.64-42.18l3.12-.07s0.18,16.34.07,23.82c-0.11,7.73-.63,17.5,4,22.11,3,3,12.79,8.36,12.79,3.5,0-2.83-5.35-5.14-5.35-12.79V197c4.29,0,3.64,11.57,3.64,11.57l0.31,21.51s-0.94,7.82,8.49,11.1c3.32,1.17,10.43,1.48,10.76-.47s-8.56-4.86-8.63-10.94c-0.05-3.69.16-5.86,0.16-21.93s-2.16-22-9.69-26.76c23.23-2.38,37.6-8.14,44.61-23.51,0.54,0,2.86-7.19,2.56-7.19a86,86,0,0,0,2.58-20.81C220.72,107.5,210.17,99.72,208.13,96Z" transform="translate(-11.57 -12.24)"/><path class="cls-2" d="M149.48,12.24c-76,0-137.91,61.89-137.91,137.93S73.44,288.12,149.48,288.12s137.95-61.89,137.95-137.95S225.55,12.24,149.48,12.24Zm66.15,145.34c-7,15.37-21.39,21.14-44.61,23.51,7.53,4.74,9.69,10.67,9.69,26.76s-0.22,18.23-.16,21.93c0.07,6.07,9,9,8.63,10.94s-7.44,1.64-10.76.47c-9.42-3.28-8.49-11.1-8.49-11.1l-0.31-21.51S170.27,197,166,197v35.19c0,7.66,5.35,10,5.35,12.79,0,4.87-9.78-.45-12.79-3.5-4.59-4.61-4.07-14.38-4-22.11,0.11-7.48-.07-23.82-0.07-23.82l-3.12.07s1.28,35.68-1.64,42.18c-3.78,8.34-15.19,11.23-15.19,7.42,0-2.56,2.81-1.75,4.36-7.48,1.33-4.88.86-41.26,0.86-41.26s-3.64,2.16-3.64,9c0,3.12-.09,20.94-0.09,26.23,0,6.67-9.48,10.49-14,10.49-2.31,0-5.17-.13-5.17-1.35,0-3.08,8.67-4.88,8.67-11.32,0-5.57-.13-19.87-0.13-19.87a68.47,68.47,0,0,1-10.59.76c-15.71,0-20.69-10-23.06-15.62a27.23,27.23,0,0,0-11.3-13.48c-2.59-1.69-3.21-3.68-.2-4.23,13.91-2.63,17.48,15.75,26.76,18.69,6.63,2.09,15.17,1.19,19.41-1.55,0.56-5.62,4.61-10.47,8-13-23.62-2.27-37.64-10.47-44.9-23.66-0.09,0-3.42-7.15-3.15-7.15A71.48,71.48,0,0,1,83,127.45c0-15.21,4.74-20.94,11.1-29-4.86-17.32,1.75-29.15,1.75-29.15S106.13,67.12,125.46,81c10.47-4.49,38.42-4.85,51.62-1C185.19,74.62,200,67,206,69.14c1.62,2.61,5.12,10.2,2.11,26.9,2,3.68,12.59,11.46,12.63,33.53a86,86,0,0,1-2.58,20.81C218.49,150.38,216.17,157.59,215.63,157.57Z" transform="translate(-11.57 -12.24)"/></svg>