<svg id="Layer_1" data-name="Layer 1" xmlns="http://www.w3.org/2000/svg" viewBox="0 0 275.33 275.35"><defs><style>.cls-1{fill:#726f6f;}</style></defs><title>icon-twitter</title><path class="cls-1" d="M211.6,118.62c0,1.35.07,2.73,0.07,4.12,0,41.85-31.87,90.12-90.17,90.12a89.53,89.53,0,0,1-48.57-14.23,66,66,0,0,0,7.55.45,63.51,63.51,0,0,0,39.37-13.56,31.72,31.72,0,0,1-29.58-22,30.8,30.8,0,0,0,6,.56,31.24,31.24,0,0,0,8.34-1.1,31.7,31.7,0,0,1-25.43-31.06,3.18,3.18,0,0,1,0-.41,31.32,31.32,0,0,0,14.37,4,31.72,31.72,0,0,1-9.84-42.3A90,90,0,0,0,149,126.28a32,32,0,0,1-.81-7.23A31.69,31.69,0,0,1,203,97.36a63,63,0,0,0,20.16-7.7,31.85,31.85,0,0,1-14,17.55,62.68,62.68,0,0,0,18.2-5,64.73,64.73,0,0,1-15.77,16.38M150.15,12.44C74.26,12.44,12.5,74.21,12.5,150.11S74.26,287.79,150.15,287.79,287.83,226,287.83,150.11,226.08,12.44,150.15,12.44" transform="translate(-12.5 -12.44)"/></svg>