<svg id="linkedin_icon" data-name="Layer 1" xmlns="http://www.w3.org/2000/svg" viewBox="0 0 257.44 257.42"><defs><style>.cls-1{fill:#6f6f6f;}</style></defs><title>icon-linkedin</title><path class="cls-1" d="M213.28,207.29h-24v-39c0-9.29-1-21.23-13.76-21.23-12.94,0-14.92,10.13-14.92,20.57v39.64H137.3v-80h22.3v10.78h0.35c3.31-6.3,11.42-10.78,23.52-10.78,25.15,0,29.81,14.44,29.81,36v43.95Zm-106-92a14,14,0,1,1,14-14,14,14,0,0,1-14,14m14,92h-28v-80h28v80ZM268.65,100.1a128.56,128.56,0,0,0-68.48-68.48,128.63,128.63,0,0,0-84.3-5.53,130.64,130.64,0,0,0-30.76,13A128.73,128.73,0,0,0,39,85.17a130.81,130.81,0,0,0-13,30.78,128.87,128.87,0,0,0,0,68.46,130.81,130.81,0,0,0,13,30.78,129,129,0,0,0,76.84,59.07,128.93,128.93,0,0,0,68.48,0,130.29,130.29,0,0,0,30.76-13,128.86,128.86,0,0,0,46.08-46.07,130.08,130.08,0,0,0,13-30.78,128.34,128.34,0,0,0-5.53-84.3" transform="translate(-21.39 -21.46)"/></svg>
