<?xml version="1.0" encoding="UTF-8" standalone="no"?>
<svg width="90px" height="90px" version="1.1" xmlns="http://www.w3.org/2000/svg" xmlns:xlink="http://www.w3.org/1999/xlink" xml:space="preserve" style="fill-rule:evenodd;clip-rule:evenodd;stroke-linecap:round;stroke-linejoin:round;stroke-miterlimit:1.5;">
    <g transform="matrix(1.2638,0,0,1.14853,-10.3837,-7.36925)">
        <ellipse cx="44.015" cy="45.597" rx="35.607" ry="39.181" style="fill:rgb(18,11,11);"/>
    </g>
    <g transform="matrix(1.53828,0,0,1.46161,-23.5874,-22.6302)">
        <path d="M34.547,47.366L53.929,47.192" style="fill:none;stroke:white;stroke-width:1.33px;"/>
        <path d="M34.547,52.519L53.929,52.519" style="fill:none;stroke:white;stroke-width:1.33px;"/>
        <path d="M34.547,57.61L53.929,57.61" style="fill:none;stroke:white;stroke-width:1.33px;"/>
        <path d="M34.547,63.253L53.929,63.253" style="fill:none;stroke:white;stroke-width:1.33px;"/>
        <path d="M41.444,42.314L41.548,39.624C41.548,39.624 42.057,37.347 43.424,37.347C44.791,37.347 46.89,37.347 46.89,37.347C46.89,37.347 48.99,37.84 49.026,39.561C49.061,41.281 49.026,42.275 49.026,42.275" style="fill:white;stroke:white;stroke-width:0.67px;"/>
        <g transform="matrix(1,0,0,1,0.00601111,1.20273)">
            <ellipse cx="45.237" cy="32.061" rx="2.871" ry="3.074" style="fill:rgb(255,251,251);"/>
        </g>
        <path d="M30.297,68.421L58.26,68.421L58.26,22.821L38.547,22.821L38.547,31.55L30.112,31.55L30.297,68.421Z" style="fill:none;stroke:white;stroke-width:1.33px;"/>
        <path d="M30.112,31.55L38.547,22.821" style="fill:none;stroke:white;stroke-width:1.33px;"/>
        <path d="M41.444,42.314L49.042,42.314" style="fill:none;stroke:white;stroke-width:0.67px;"/>
    </g>
</svg>
