<?xml version="1.0" encoding="UTF-8" standalone="no"?>
<!-- Created with Inkscape (http://www.inkscape.org/) -->
<svg
   xmlns:dc="http://purl.org/dc/elements/1.1/"
   xmlns:cc="http://web.resource.org/cc/"
   xmlns:rdf="http://www.w3.org/1999/02/22-rdf-syntax-ns#"
   xmlns:svg="http://www.w3.org/2000/svg"
   xmlns="http://www.w3.org/2000/svg"
   xmlns:xlink="http://www.w3.org/1999/xlink"
   xmlns:sodipodi="http://sodipodi.sourceforge.net/DTD/sodipodi-0.dtd"
   xmlns:inkscape="http://www.inkscape.org/namespaces/inkscape"
   width="64px"
   height="64px"
   id="svg2157"
   sodipodi:version="0.32"
   inkscape:version="0.45.1"
   sodipodi:docbase="C:\Users\Juho\Desktop\Juhon tiedostot\Vektorigrafiikkaa"
   sodipodi:docname="writing.svg"
   inkscape:output_extension="org.inkscape.output.svg.inkscape">
  <defs
     id="defs2159">
    <linearGradient
       id="linearGradient6197">
      <stop
         style="stop-color:#f3be64;stop-opacity:1;"
         offset="0"
         id="stop6199" />
      <stop
         style="stop-color:#784b00;stop-opacity:1;"
         offset="1"
         id="stop6201" />
    </linearGradient>
    <linearGradient
       id="linearGradient6189">
      <stop
         style="stop-color:#522000;stop-opacity:1;"
         offset="0"
         id="stop6191" />
      <stop
         style="stop-color:#ff6600;stop-opacity:1;"
         offset="1"
         id="stop6193" />
    </linearGradient>
    <linearGradient
       id="linearGradient6158">
      <stop
         style="stop-color:#24ff00;stop-opacity:1;"
         offset="0"
         id="stop6160" />
      <stop
         id="stop6166"
         offset="1"
         style="stop-color:#917f08;stop-opacity:0.49803922;" />
    </linearGradient>
    <linearGradient
       id="linearGradient6132">
      <stop
         style="stop-color:#ff6600;stop-opacity:1;"
         offset="0"
         id="stop6134" />
      <stop
         id="stop6140"
         offset="1"
         style="stop-color:#451b00;stop-opacity:0;" />
    </linearGradient>
    <linearGradient
       inkscape:collect="always"
       xlink:href="#linearGradient6197"
       id="linearGradient6203"
       x1="31.272728"
       y1="41.272728"
       x2="34.727272"
       y2="44.909092"
       gradientUnits="userSpaceOnUse"
       gradientTransform="matrix(1.0896936,0.2051758,-0.2022106,1.0739454,6.8646794,-21.771411)" />
    <linearGradient
       inkscape:collect="always"
       xlink:href="#linearGradient6189"
       id="linearGradient3162"
       x1="42.724258"
       y1="26.770212"
       x2="37.608719"
       y2="20.612614"
       gradientUnits="userSpaceOnUse"
       gradientTransform="matrix(0.9827317,0.1850362,-0.1850362,0.9827317,7.3116767,-4.8429466)" />
  </defs>
  <sodipodi:namedview
     id="base"
     pagecolor="#ffffff"
     bordercolor="#666666"
     borderopacity="1.0"
     inkscape:pageopacity="0.0"
     inkscape:pageshadow="2"
     inkscape:zoom="0.93303299"
     inkscape:cx="32"
     inkscape:cy="20.827622"
     inkscape:current-layer="layer1"
     showgrid="true"
     inkscape:document-units="px"
     inkscape:grid-bbox="false"
     inkscape:window-width="1280"
     inkscape:window-height="750"
     inkscape:window-x="-8"
     inkscape:window-y="-8" />
  <metadata
     id="metadata2162">
    <rdf:RDF>
      <cc:Work
         rdf:about="">
        <dc:format>image/svg+xml</dc:format>
        <dc:type
           rdf:resource="http://purl.org/dc/dcmitype/StillImage" />
      </cc:Work>
    </rdf:RDF>
  </metadata>
  <g
     id="layer1"
     inkscape:label="Layer 1"
     inkscape:groupmode="layer">
    <path
       style="fill:#4d4d4d;fill-rule:evenodd;stroke:#000000;stroke-width:0;stroke-linecap:butt;stroke-linejoin:miter;stroke-miterlimit:4;stroke-dasharray:none;stroke-opacity:1"
       d="M 0.54748005,36.576273 L 42.545132,51.010099 L 63.543956,43.793187 L 21.546305,29.359361 L 0.54748005,36.576273 z "
       id="path2185" />
    <path
       style="fill:#e6e6e6;fill-rule:evenodd;stroke:#000000;stroke-width:1.10934544;stroke-linecap:butt;stroke-linejoin:miter;stroke-miterlimit:4;stroke-dasharray:none;stroke-opacity:1"
       d="M 2.0642241,34.373011 L 42.180528,48.134084 L 62.238681,41.253548 L 22.122377,27.492474 L 2.0642241,34.373011 z "
       id="path3200" />
    <path
       style="fill:#483737;fill-opacity:1;stroke-width:0;stroke-miterlimit:4;stroke-dasharray:none"
       id="path6187"
       d="M 22.802174,37.83965 C 23.34641,37.67443 23.891853,37.519462 24.434397,37.346084 C 24.895764,37.265746 25.324447,37.050185 25.762864,36.881738 C 26.081056,36.645644 25.089675,37.275806 24.758765,37.485812 C 26.271763,36.268744 28.625229,34.788403 25.506337,36.859651 C 25.620273,36.740363 25.715889,36.599734 25.820519,36.469952 L 27.783601,35.50185 C 27.678185,35.633416 27.582593,35.769748 27.470028,35.893207 C 27.436839,35.9429 27.403648,35.992592 27.370459,36.042285 C 26.723184,36.495124 26.075909,36.947963 25.428634,37.400799 C 25.005626,37.707428 27.144514,36.226508 26.735305,36.558488 C 25.865707,37.189146 25.029701,37.929121 24.0942,38.434047 C 23.652151,38.589552 23.214555,38.77139 22.758214,38.867387 C 22.212819,39.036691 21.662657,39.187214 21.124673,39.387063 L 22.802174,37.83965 z " />
    <path
       style="fill:#483737;fill-opacity:1;stroke-width:0;stroke-miterlimit:4;stroke-dasharray:none"
       id="path6183"
       d="M 18.542807,38.282059 C 19.055871,37.928131 19.572558,37.580213 20.086024,37.226854 C 20.535693,36.887217 21.009501,36.585132 21.485741,36.282395 C 28.131861,32.825527 17.152858,38.481255 24.840821,34.491151 C 25.377595,34.332369 25.891789,34.121242 26.411864,33.921331 C 21.170026,36.714312 30.824407,31.524455 25.571192,34.327039 C 28.753074,32.576479 28.898927,32.567424 26.755297,33.701579 C 27.060781,33.572393 27.224848,33.302117 27.443194,33.093414 L 29.629317,32.162167 C 29.424789,32.411131 29.332131,32.73477 28.987704,32.884814 C 25.840555,34.614873 25.613369,34.691514 27.806509,33.513096 C 20.804114,37.375894 32.048161,31.19786 24.536785,35.314542 C 24.013908,35.511209 23.492197,35.709256 22.958693,35.879813 C 28.574586,32.691582 17.969034,38.724539 23.713906,35.473546 C 23.222981,35.758245 22.744769,36.043995 22.304467,36.399183 C 21.796746,36.756837 21.267626,37.084205 20.774602,37.458921 L 18.542807,38.282059 z " />
    <path
       style="fill:url(#linearGradient3162);fill-opacity:1;fill-rule:evenodd;stroke:#000000;stroke-width:1;stroke-linecap:butt;stroke-linejoin:miter;stroke-miterlimit:4;stroke-dasharray:none;stroke-opacity:1"
       d="M 28.069163,35.377532 L 34.272857,26.356781 L 48.880402,16.515641 C 48.880402,16.515641 52.357149,13.798764 54.767086,17.596269 C 57.108818,21.286299 54.182088,22.705197 54.182088,22.705197 L 38.298058,33.804436 L 28.069163,35.377532 z "
       id="path2183"
       sodipodi:nodetypes="cccsccc" />
    <path
       style="fill:url(#linearGradient6203);fill-opacity:1;fill-rule:evenodd;stroke:#000000;stroke-width:0;stroke-linecap:butt;stroke-linejoin:miter;stroke-miterlimit:4;stroke-dasharray:none;stroke-opacity:1"
       d="M 34.63134,26.69503 C 39.960067,28.621796 38.113834,33.34192 38.113834,33.34192 L 28.73931,34.936952 L 34.63134,26.69503 z "
       id="path5161"
       sodipodi:nodetypes="cccc" />
    <path
       style="fill:#483737;fill-opacity:1;stroke-width:0;stroke-miterlimit:4;stroke-dasharray:none"
       id="path6173"
       d="M 9.838231,33.606254 C 11.016069,33.433558 12.171551,33.163489 13.322404,32.874027 C 14.012983,32.697634 14.663414,32.445261 15.314313,32.17256 C 16.826068,31.638876 17.727203,31.019343 14.533417,32.738917 C 21.121496,29.220896 10.04131,35.129407 17.532461,31.132003 C 17.903246,30.938604 18.28928,30.769853 18.664613,30.584765 C 12.920948,33.72302 23.703239,27.837044 17.805664,31.048311 C 18.986911,30.159291 19.786888,29.877582 21.023821,29.559177 C 21.466214,29.365399 21.944985,29.27773 22.41556,29.175316 C 22.65622,29.130636 22.886402,29.052293 23.121502,28.990867 L 21.278979,30.346758 C 21.041425,30.405743 20.804625,30.467268 20.566339,30.523703 C 20.095719,30.63324 19.627005,30.738694 19.176143,30.912641 C 18.266741,31.183793 16.421838,31.902322 19.981791,30.248714 C 13.525372,33.797915 24.20046,27.929332 16.84558,31.978426 C 16.464604,32.156158 16.083117,32.332562 15.702413,32.511021 C 21.387664,29.31846 10.823075,35.242063 16.714953,31.940195 C 15.655217,32.517208 14.650626,33.171663 13.494628,33.548308 C 12.840663,33.795802 12.187945,34.040651 11.501152,34.202083 C 10.338504,34.480858 9.1705616,34.73451 7.9880756,34.926959 L 9.838231,33.606254 z " />
    <path
       style="fill:#483737;fill-opacity:1;stroke-width:0;stroke-miterlimit:4;stroke-dasharray:none"
       id="path6175"
       d="M 13.998793,35.085896 C 14.588237,34.740851 15.20318,34.455109 15.793886,34.112475 C 16.317822,33.822215 16.844404,33.538025 17.368807,33.248995 C 13.472487,35.607744 17.382366,33.195446 18.637748,32.537074 C 19.0093,32.355943 19.389654,32.201621 19.769934,32.042896 C 20.119994,31.910606 20.475851,31.795916 20.831645,31.677147 C 21.245973,31.504803 21.689619,31.502181 22.123873,31.447493 C 22.496203,31.375115 22.847841,31.240647 23.208048,31.13309 C 23.547946,31.00548 22.578772,31.505532 22.260531,31.684764 C 28.957869,27.56617 19.450279,33.344823 25.253685,29.849242 C 25.392474,29.764931 25.550326,29.736293 25.698644,29.679819 L 23.952802,31.114658 C 23.811685,31.180321 23.660823,31.222694 23.529447,31.311646 C 28.168127,28.474667 19.885744,33.485874 24.325568,30.822303 C 23.386341,31.416213 22.508546,32.181463 21.456109,32.572266 C 21.088057,32.669692 20.722541,32.794454 20.342169,32.834688 C 19.91715,32.906875 19.482679,32.929481 19.079205,33.110374 C 18.72715,33.235838 18.370944,33.347331 18.022317,33.484549 C 17.646019,33.647109 17.268811,33.808013 16.900283,33.989441 C 14.024973,35.578838 22.036246,30.909423 15.646944,34.707561 C 15.124015,34.991819 14.600143,35.2741 14.08186,35.567758 C 13.477478,35.897535 12.860765,36.201015 12.264706,36.548114 L 13.998793,35.085896 z " />
    <path
       style="fill:#483737;fill-opacity:1;stroke-width:0;stroke-miterlimit:4;stroke-dasharray:none"
       id="path6177"
       d="M 16.834757,36.13367 C 17.623454,35.943109 18.337595,35.572468 19.049299,35.210891 C 19.868075,34.767186 20.739031,34.426928 21.6168,34.105749 C 22.225712,33.990057 22.750187,33.694779 23.289982,33.427575 C 18.675942,35.923334 26.406565,31.804537 22.609181,33.771841 C 26.484447,31.652902 24.697881,32.612262 23.893227,33.034175 C 25.283442,32.192872 29.316728,30.093992 25.11725,32.35798 C 26.131679,31.712289 27.201952,31.207745 28.281549,30.701049 L 26.340834,32.154465 C 25.508245,32.566991 23.803892,33.430706 27.4244,31.521255 C 26.568984,31.983797 24.003738,33.372738 24.850918,32.896879 C 28.38999,30.909 26.977594,31.731255 26.197848,32.185246 C 21.975166,34.546183 24.59926,33.086141 24.910575,32.922436 C 18.377643,36.597694 27.738513,31.387623 21.365722,34.893896 C 20.819506,35.141624 20.279364,35.397171 19.684288,35.532773 C 18.818185,35.865607 17.959059,36.214411 17.146295,36.655144 C 16.412318,37.011488 15.67768,37.366426 14.875912,37.570633 L 16.834757,36.13367 z " />
    <path
       style="fill:#000000;fill-rule:evenodd;stroke:#000000;stroke-width:0;stroke-linecap:butt;stroke-linejoin:miter;stroke-miterlimit:4;stroke-dasharray:none;stroke-opacity:1"
       d="M 28.610981,35.084316 L 29.669193,32.955517 C 29.669193,32.955517 30.667769,33.188752 30.845118,33.592577 C 31.08708,34.143531 30.991914,34.625287 30.991914,34.625287 L 28.610981,35.084316 z "
       id="path7180"
       sodipodi:nodetypes="ccscc" />
  </g>
</svg>
